# xmcd
#
# Track frame offsets:
#	150
#	16146
#	34040
#	51481
#	67907
#	82372
#	101874
#	116007
#	134626
#	147794
#	163585
#	178594
#	195208
#	207870
#
# Disc length: 3153 seconds
#
# Revision: 0
# Processed by: cddbd v1.5.2PL0 Copyright (c) Steve Scherf et al.
# Submitted via: EasyCDDAExtractor 10.2.0.1
#
DISCID=c70c4f0e
DTITLE=Eduardo Lages - Com Amor
DYEAR=2007
DGENRE=Instrumental
TTITLE0=De Tanto Amor
TTITLE1=Chega de Saudade
TTITLE2=Theme from Love Story
TTITLE3=Como é grande o meu amor por você
TTITLE4=Michelle
TTITLE5=Eu sei que vou te amar
TTITLE6=Amante à moda antiga
TTITLE7=Eu vou sempre amar você
TTITLE8=Cama e mesa
TTITLE9=Dio, com ti amo
TTITLE10=Gatinha manhosa
TTITLE11=Você
TTITLE12=O Caderninho
TTITLE13=Cavalgada
EXTD=
EXTT0=
EXTT1=
EXTT2=
EXTT3=
EXTT4=
EXTT5=
EXTT6=
EXTT7=
EXTT8=
EXTT9=
EXTT10=
EXTT11=
EXTT12=
EXTT13=
PLAYORDER=
